<svg xmlns="http://www.w3.org/2000/svg" viewBox="0 0 100 100">
  <rect width="100" height="100" fill="#2C3E50"/>
  <circle cx="50" cy="50" r="25" fill="none" stroke="#C9A961" stroke-width="3"/>
  <circle cx="50" cy="50" r="6" fill="#C9A961"/>
  <line x1="50" y1="25" x2="50" y2="15" stroke="#C9A961" stroke-width="3"/>
  <line x1="50" y1="75" x2="50" y2="85" stroke="#C9A961" stroke-width="3"/>
  <line x1="25" y1="50" x2="15" y2="50" stroke="#C9A961" stroke-width="3"/>
  <line x1="75" y1="50" x2="85" y2="50" stroke="#C9A961" stroke-width="3"/>
  <line x1="32.5" y1="32.5" x2="25" y2="25" stroke="#C9A961" stroke-width="2.5"/>
  <line x1="67.5" y1="67.5" x2="75" y2="75" stroke="#C9A961" stroke-width="2.5"/>
  <line x1="67.5" y1="32.5" x2="75" y2="25" stroke="#C9A961" stroke-width="2.5"/>
  <line x1="32.5" y1="67.5" x2="25" y2="75" stroke="#C9A961" stroke-width="2.5"/>
  <circle cx="50" cy="15" r="3" fill="#C9A961"/>
  <circle cx="50" cy="85" r="3" fill="#C9A961"/>
  <circle cx="15" cy="50" r="3" fill="#C9A961"/>
  <circle cx="85" cy="50" r="3" fill="#C9A961"/>
  <circle cx="25" cy="25" r="3" fill="#C9A961"/>
  <circle cx="75" cy="75" r="3" fill="#C9A961"/>
  <circle cx="75" cy="25" r="3" fill="#C9A961"/>
  <circle cx="25" cy="75" r="3" fill="#C9A961"/>
</svg>